<svg width="12" height="6" viewBox="0 0 12 6" fill="none" xmlns="http://www.w3.org/2000/svg">
<g clip-path="url(#clip0_767_19)">
<path d="M0.000396681 0.676232C0.000744681 0.586832 0.0177365 0.498395 0.0504005 0.416044C0.0830525 0.333693 0.130729 0.259067 0.190657 0.196487C0.309481 0.0706383 0.470232 0 0.637776 0C0.805332 0 0.966073 0.0706383 1.0849 0.196487L4.67454 4.02093C5.03129 4.40054 5.51488 4.61376 6.01908 4.61376C6.52328 4.61376 7.00686 4.40054 7.36361 4.02093L10.9533 0.196487C11.0746 0.0857905 11.2306 0.0279465 11.3903 0.034515C11.5499 0.0410836 11.7013 0.111581 11.8142 0.231919C11.9272 0.352257 11.9934 0.513572 11.9995 0.683628C12.0057 0.853685 11.9514 1.01996 11.8475 1.14922L8.2642 5.00744C7.96963 5.32207 7.6197 5.57169 7.23444 5.74201C6.84919 5.91233 6.43619 6 6.01908 6C5.60197 6 5.18897 5.91233 4.80371 5.74201C4.41846 5.57169 4.06853 5.32207 3.77396 5.00744L0.190657 1.183C0.127609 1.11728 0.0781205 1.03826 0.0453605 0.950996C0.0126005 0.863736 -0.00275932 0.770155 0.000396681 0.676232Z" fill="black"/>
</g>
<defs>
<clipPath id="clip0_767_19">
<rect width="6" height="12" fill="white" transform="matrix(0 1 -1 0 12 0)"/>
</clipPath>
</defs>
</svg>
