<svg width="716" height="716" viewBox="0 0 716 716" fill="none" xmlns="http://www.w3.org/2000/svg">
<path d="M191.333 423.032C191.333 405.073 206.257 390.516 224.667 390.516C243.076 390.516 258 405.073 258 423.032C258 440.99 243.076 455.548 224.667 455.548C206.257 455.548 191.333 440.99 191.333 423.032Z" fill="white"/>
<path d="M224.667 520.58C206.257 520.58 191.333 535.137 191.333 553.095C191.333 571.054 206.257 585.611 224.667 585.611C243.076 585.611 258 571.054 258 553.095C258 535.137 243.076 520.58 224.667 520.58Z" fill="white"/>
<path d="M324.667 423.032C324.667 405.073 339.59 390.516 358 390.516C376.41 390.516 391.333 405.073 391.333 423.032C391.333 440.99 376.41 455.548 358 455.548C339.59 455.548 324.667 440.99 324.667 423.032Z" fill="white"/>
<path d="M358 520.58C339.59 520.58 324.667 535.137 324.667 553.095C324.667 571.054 339.59 585.611 358 585.611C376.41 585.611 391.333 571.054 391.333 553.095C391.333 535.137 376.41 520.58 358 520.58Z" fill="white"/>
<path d="M458 423.032C458 405.073 472.923 390.516 491.333 390.516C509.743 390.516 524.667 405.073 524.667 423.032C524.667 440.99 509.743 455.548 491.333 455.548C472.923 455.548 458 440.99 458 423.032Z" fill="white"/>
<path d="M491.333 520.58C472.923 520.58 458 535.137 458 553.095C458 571.054 472.923 585.611 491.333 585.611C509.743 585.611 524.667 571.054 524.667 553.095C524.667 535.137 509.743 520.58 491.333 520.58Z" fill="white"/>
<path fill-rule="evenodd" clip-rule="evenodd" d="M158 32.8411C158 14.8832 172.924 0.325195 191.333 0.325195C209.742 0.325195 224.667 14.8832 224.667 32.8411V65.357H491.333V32.8411C491.333 14.8832 506.256 0.325195 524.666 0.325195C543.076 0.325195 558 14.8832 558 32.8411V65.357H591.333C646.563 65.357 691.333 109.031 691.333 162.905V618.127C691.333 672.003 646.563 715.675 591.333 715.675H124.667C69.4382 715.675 24.6665 672.003 24.6665 618.127V162.905C24.6665 109.031 69.4382 65.357 124.667 65.357H158V32.8411ZM491.333 130.389V162.905C491.333 180.863 506.256 195.421 524.666 195.421C543.076 195.421 558 180.863 558 162.905V130.389H591.333C609.743 130.389 624.667 144.947 624.667 162.905V260.452H91.3332V162.905C91.3332 144.947 106.257 130.389 124.667 130.389H158V162.905C158 180.863 172.924 195.421 191.333 195.421C209.742 195.421 224.667 180.863 224.667 162.905V130.389H491.333ZM91.3332 325.484V618.127C91.3332 636.086 106.257 650.643 124.667 650.643H591.333C609.743 650.643 624.667 636.086 624.667 618.127V325.484H91.3332Z" fill="white"/>
</svg>
