<svg width="563" height="513" viewBox="0 0 563 513" fill="none" xmlns="http://www.w3.org/2000/svg">
<path d="M305.475 509.9H457.825C486.725 509.9 510.95 499.75 529.7 480.2C548.45 461.45 560.175 436.45 560.175 408.325V102.85C560.175 74.7249 548.45 49.7249 529.7 30.9749C510.95 12.2249 485.95 1.2749 457.825 1.2749H305.475V65.3499H457.825C479.7 65.3499 496.1 81.7499 496.1 102.85V408.325C496.1 429.425 479.7 446.6 457.825 446.6H305.475V509.9ZM0 195.075V316.95C0 331.025 11.725 342.725 25.775 342.725H167.975V438.825C167.975 447.425 171.875 454.45 179.7 458.35C182.825 459.125 186.725 459.125 188.3 459.125C193.775 459.125 198.45 457.55 202.375 453.65L385.975 270.05C393 263.025 392.225 248.95 385.975 241.15L202.375 58.3249C196.125 52.0749 188.3 51.2999 179.725 53.6249C171.9 57.5249 168 63.7749 168 72.3749V169.25H25.8C11.725 169.25 0.025 180.975 0.025 195.025L0 195.075Z" fill="white"/>
</svg>
