<svg width="800" height="614" viewBox="0 0 800 614" fill="none" xmlns="http://www.w3.org/2000/svg">
<path fill-rule="evenodd" clip-rule="evenodd" d="M750 507C750 512.075 749.025 516.875 747.625 521.45L525 282L750 107V507ZM88.9 555.65L314.5 315.25L400 379.875L481.8 314.85L711.1 555.65C707.525 556.475 92.475 556.475 88.9 555.65ZM50 507V107L275 282L52.375 521.45C50.975 516.875 50 512.075 50 507ZM725 57L400 307L75 57H725ZM700 7H100C44.775 7 0 51.775 0 107V507C0 562.225 44.775 607 100 607H700C755.225 607 800 562.225 800 507V107C800 51.775 755.225 7 700 7Z" fill="white"/>
</svg>
