<svg width="800" height="800" viewBox="0 0 800 800" fill="none" xmlns="http://www.w3.org/2000/svg">
<g clip-path="url(#clip0_13154_495)">
<path fill-rule="evenodd" clip-rule="evenodd" d="M601.35 496L800 697.5L700 800L496.25 601.2C444.861 633.179 385.526 650.087 325 650C145.5 650 0 504.15 0 325C0 145.5 145.85 0 325 0C504.5 0 650 145.85 650 325C650.09 385.428 633.236 444.67 601.35 496ZM99.85 322.6C99.85 446.6 200.55 547.6 324.85 547.6C448.85 547.6 549.85 446.85 549.85 322.6C549.85 198.6 449.1 97.6 324.85 97.6C200.85 97.6 99.85 198.3 99.85 322.6Z" fill="white"/>
</g>
<defs>
<clipPath id="clip0_13154_495">
<rect width="800" height="800" fill="white"/>
</clipPath>
</defs>
</svg>
